<mxfile host="Electron" modified="2024-07-31T02:53:47.110Z" agent="Mozilla/5.0 (Windows NT 10.0; Win64; x64) AppleWebKit/537.36 (KHTML, like Gecko) draw.io/22.0.2 Chrome/114.0.5735.289 Electron/25.8.4 Safari/537.36" etag="RUvjoqL_DLGMSSzwoRQu" version="22.0.2" type="device">
  <diagram name="ページ1" id="NKPZZOQx5-XQ6p6UbQd2">
    <mxGraphModel dx="909" dy="578" grid="1" gridSize="10" guides="1" tooltips="1" connect="1" arrows="1" fold="1" page="1" pageScale="1" pageWidth="827" pageHeight="1169" math="0" shadow="0">
      <root>
        <mxCell id="0" />
        <mxCell id="1" parent="0" />
        <mxCell id="aP6pm0OyYkuhKLj-Sk2u-66" value="シーケンス図" style="rounded=0;whiteSpace=wrap;html=1;" parent="1" vertex="1">
          <mxGeometry x="60" y="1120" width="130" height="40" as="geometry" />
        </mxCell>
        <mxCell id="aP6pm0OyYkuhKLj-Sk2u-68" value="" style="rounded=0;whiteSpace=wrap;html=1;" parent="1" vertex="1">
          <mxGeometry x="275" y="1240" width="10" height="320" as="geometry" />
        </mxCell>
        <mxCell id="aP6pm0OyYkuhKLj-Sk2u-72" value="：マネージャ" style="rounded=0;whiteSpace=wrap;html=1;" parent="1" vertex="1">
          <mxGeometry x="245" y="1190" width="85" height="30" as="geometry" />
        </mxCell>
        <mxCell id="aP6pm0OyYkuhKLj-Sk2u-73" value="：デザイナ" style="rounded=0;whiteSpace=wrap;html=1;" parent="1" vertex="1">
          <mxGeometry x="407.5" y="1190" width="75" height="30" as="geometry" />
        </mxCell>
        <mxCell id="aP6pm0OyYkuhKLj-Sk2u-74" value="：プログラマ" style="rounded=0;whiteSpace=wrap;html=1;" parent="1" vertex="1">
          <mxGeometry x="595" y="1190" width="95" height="30" as="geometry" />
        </mxCell>
        <mxCell id="aP6pm0OyYkuhKLj-Sk2u-76" value="" style="endArrow=none;dashed=1;html=1;rounded=0;entryX=0.5;entryY=1;entryDx=0;entryDy=0;exitX=0.5;exitY=0;exitDx=0;exitDy=0;" parent="1" edge="1">
          <mxGeometry width="50" height="50" relative="1" as="geometry">
            <mxPoint x="279.71000000000004" y="1240" as="sourcePoint" />
            <mxPoint x="279.71000000000004" y="1220" as="targetPoint" />
          </mxGeometry>
        </mxCell>
        <mxCell id="aP6pm0OyYkuhKLj-Sk2u-79" value="" style="endArrow=none;dashed=1;html=1;rounded=0;entryX=0.5;entryY=1;entryDx=0;entryDy=0;" parent="1" target="aP6pm0OyYkuhKLj-Sk2u-73" edge="1">
          <mxGeometry width="50" height="50" relative="1" as="geometry">
            <mxPoint x="445" y="1560" as="sourcePoint" />
            <mxPoint x="289.71000000000004" y="1230" as="targetPoint" />
          </mxGeometry>
        </mxCell>
        <mxCell id="aP6pm0OyYkuhKLj-Sk2u-80" value="" style="endArrow=none;dashed=1;html=1;rounded=0;entryX=0.5;entryY=1;entryDx=0;entryDy=0;" parent="1" target="aP6pm0OyYkuhKLj-Sk2u-74" edge="1">
          <mxGeometry width="50" height="50" relative="1" as="geometry">
            <mxPoint x="643" y="1560" as="sourcePoint" />
            <mxPoint x="482.5" y="1230" as="targetPoint" />
          </mxGeometry>
        </mxCell>
        <mxCell id="c4rfdRGD2cSL1FAddqTs-2" value="" style="endArrow=classic;html=1;rounded=0;exitX=1;exitY=0.063;exitDx=0;exitDy=0;exitPerimeter=0;entryX=-0.145;entryY=0.151;entryDx=0;entryDy=0;entryPerimeter=0;" edge="1" parent="1">
          <mxGeometry width="50" height="50" relative="1" as="geometry">
            <mxPoint x="286.45" y="1369.05" as="sourcePoint" />
            <mxPoint x="637.5" y="1368.3200000000002" as="targetPoint" />
          </mxGeometry>
        </mxCell>
        <mxCell id="c4rfdRGD2cSL1FAddqTs-3" value="3:プログラムを作成する()" style="text;html=1;align=center;verticalAlign=middle;resizable=0;points=[];autosize=1;strokeColor=none;fillColor=none;" vertex="1" parent="1">
          <mxGeometry x="281.45" y="1340" width="160" height="30" as="geometry" />
        </mxCell>
        <mxCell id="c4rfdRGD2cSL1FAddqTs-11" value="" style="endArrow=classic;html=1;rounded=0;exitX=1;exitY=0.063;exitDx=0;exitDy=0;exitPerimeter=0;" edge="1" parent="1">
          <mxGeometry width="50" height="50" relative="1" as="geometry">
            <mxPoint x="120" y="1260" as="sourcePoint" />
            <mxPoint x="275" y="1260" as="targetPoint" />
          </mxGeometry>
        </mxCell>
        <mxCell id="c4rfdRGD2cSL1FAddqTs-12" value="1:開発する()" style="text;html=1;align=center;verticalAlign=middle;resizable=0;points=[];autosize=1;strokeColor=none;fillColor=none;" vertex="1" parent="1">
          <mxGeometry x="150" y="1230" width="90" height="30" as="geometry" />
        </mxCell>
        <mxCell id="c4rfdRGD2cSL1FAddqTs-13" value="" style="endArrow=classic;html=1;rounded=0;exitX=1;exitY=0.063;exitDx=0;exitDy=0;exitPerimeter=0;" edge="1" parent="1">
          <mxGeometry width="50" height="50" relative="1" as="geometry">
            <mxPoint x="285" y="1288.95" as="sourcePoint" />
            <mxPoint x="440" y="1288.95" as="targetPoint" />
          </mxGeometry>
        </mxCell>
        <mxCell id="c4rfdRGD2cSL1FAddqTs-14" value="2:設計する()" style="text;html=1;align=center;verticalAlign=middle;resizable=0;points=[];autosize=1;strokeColor=none;fillColor=none;" vertex="1" parent="1">
          <mxGeometry x="310" y="1260" width="90" height="30" as="geometry" />
        </mxCell>
        <mxCell id="aP6pm0OyYkuhKLj-Sk2u-69" value="" style="rounded=0;whiteSpace=wrap;html=1;" parent="1" vertex="1">
          <mxGeometry x="440" y="1290" width="10" height="40" as="geometry" />
        </mxCell>
        <mxCell id="aP6pm0OyYkuhKLj-Sk2u-70" value="" style="rounded=0;whiteSpace=wrap;html=1;" parent="1" vertex="1">
          <mxGeometry x="637.5" y="1370" width="10" height="40" as="geometry" />
        </mxCell>
      </root>
    </mxGraphModel>
  </diagram>
</mxfile>
